<?xml version="1.0" encoding="UTF-8" standalone="no"?>
<svg
   xmlns:dc="http://purl.org/dc/elements/1.1/"
   xmlns:cc="http://creativecommons.org/ns#"
   xmlns:rdf="http://www.w3.org/1999/02/22-rdf-syntax-ns#"
   xmlns:svg="http://www.w3.org/2000/svg"
   xmlns="http://www.w3.org/2000/svg"
   xmlns:sodipodi="http://sodipodi.sourceforge.net/DTD/sodipodi-0.dtd"
   xmlns:inkscape="http://www.inkscape.org/namespaces/inkscape"
   width="16"
   height="16"
   id="svg2"
   version="1.1"
   inkscape:version="0.91 r13725"
   sodipodi:docname="TabletTrusted.svg">
  <metadata
     id="metadata15">
    <rdf:RDF>
      <cc:Work
         rdf:about="">
        <dc:format>image/svg+xml</dc:format>
        <dc:type
           rdf:resource="http://purl.org/dc/dcmitype/StillImage" />
        <dc:title />
      </cc:Work>
    </rdf:RDF>
  </metadata>
  <defs
     id="defs13" />
  <sodipodi:namedview
     pagecolor="#ffffff"
     bordercolor="#666666"
     borderopacity="1"
     objecttolerance="10"
     gridtolerance="10"
     guidetolerance="10"
     inkscape:pageopacity="0"
     inkscape:pageshadow="2"
     inkscape:window-width="958"
     inkscape:window-height="1008"
     id="namedview11"
     showgrid="false"
     inkscape:zoom="29.5"
     inkscape:cx="9.1530975"
     inkscape:cy="8.1421356"
     inkscape:window-x="953"
     inkscape:window-y="0"
     inkscape:window-maximized="0"
     inkscape:current-layer="svg2" />
  <style
     type="text/css"
     id="style4">.icon-canvas-transparent{opacity:0;fill:#F6F6F6;} .icon-vs-out{fill:#F6F6F6;} .icon-vs-bg{fill:#424242;} .icon-vs-fg{fill:#F0EFF1;} .icon-vs-action-green{fill:#388A34;}</style>
  <path
     class="icon-canvas-transparent"
     d="M16 16h-16v-16h16v16z"
     id="canvas" />
  <path
     class="icon-vs-out"
     d="M 16,1 16,15 0,15 0,2 0,1.0169492 6,1 Z"
     id="outline"
     inkscape:connector-curvature="0"
     style="fill:#f6f6f6"
     sodipodi:nodetypes="ccccccc" />
  <path
     class="icon-vs-bg"
     d="M 14,3 14,11 2,11 1.9830509,2.9745763 Z M 1.0169492,2.1016949 1,6 1,14 15,14 15,2 8,2 1.0169491,2.0508475 M 9,13 7,13 7,12 9,12 Z"
     id="iconBg"
     inkscape:connector-curvature="0"
     style="fill:#424242"
     sodipodi:nodetypes="ccccccccccccccccc" />
  <path
     class="icon-vs-fg"
     d="m 9,13 -2,0 0,-1 2,0 z M 2,3 l 0,5 0,3 12,0 0,-8 z"
     id="iconFg"
     inkscape:connector-curvature="0"
     style="fill:#d5ffe6"
     sodipodi:nodetypes="ccccccccccc" />
</svg>
